<?xml version="1.0"?>
<svg xmlns="http://www.w3.org/2000/svg" viewBox="0 0 120 36" width="120" height="36" fill="none" stroke="#ece6d4">
  
  <g stroke-width="1.2">
    <path d="M60 4 L70 16 L60 28 L50 16 Z" fill="#ece6d4"></path>
    <path d="M60 4 L60 28 M50 16 L70 16"></path>
    <path d="M40 16 L48 16 M72 16 L80 16"></path>
    <path d="M30 16 L38 14 M82 14 L90 16"></path>
    <path d="M22 16 L28 12 M92 12 L98 16"></path>
    <path d="M14 16 L20 10 M100 10 L106 16"></path>
    <path d="M6 16 L12 8 M108 8 L114 16"></path>
    <circle cx="6" cy="16" r="1.2" fill="#ece6d4"></circle>
    <circle cx="114" cy="16" r="1.2" fill="#ece6d4"></circle>
    <circle cx="60" cy="16" r="1.6" fill="#0a0a0a" stroke="none"></circle>
  </g>
</svg>